<svg xmlns="http://www.w3.org/2000/svg"><symbol id="earth" viewBox="0 0 512 512"><path d="M444.566 82.717c-15.828-17.24-34.291-32.574-55.249-45.353C335.64 4.633 274.565-5.918 216.831 3.069c-49.543 7.712-96.626 29.809-134.458 64.678-17.097 15.756-32.306 34.114-44.998 54.929a257.072 257.072 0 0 0-13.852 25.975c-53.844 116.391-12.903 257.631 99.163 325.968a258.667 258.667 0 0 0 8.26 4.827c36.27 20.322 75.583 30.847 114.763 32.357 3.292.126 6.582.197 9.87.197 41.373 0 82.283-10.036 118.99-29.142 39.963-20.802 74.941-52.36 100.057-93.549 15.424-25.294 25.908-52.235 31.763-79.692 17.197-80.654-5.705-165.78-61.823-226.9zM146.742 366.51l14.737 86.124a221.8 221.8 0 0 1-19.057-10.382c-49.752-30.339-84.713-78.235-98.44-134.868-11.733-48.405-6.74-98.233 13.896-142.757l67.258 38.492c18.472 10.572 27.747 32.371 22.552 53.011a22.296 22.296 0 0 0 5.449 20.859l1.921 2.031c16.979 17.954 17.303 46.382.735 64.718l-3.593 3.975c-4.634 5.13-6.624 11.98-5.458 18.797zm66.6-283.696l-80.454 45.28a12.64 12.64 0 0 1-9.281 1.242l-38.039-9.572c30.016-37.712 71.441-64.255 119.041-75.792a221.68 221.68 0 0 1 23.665-4.377c-.009.035-.011.071-.02.105L219.4 74.886a12.637 12.637 0 0 1-6.058 7.928zm94.051 385.196c-24.655 5.977-49.68 7.613-74.186 5.057l-5.295-32.311a12.638 12.638 0 0 1 7.348-13.596l16.549-7.337a57.103 57.103 0 0 1 70.665 20.409l9.758 14.537 8.26 2.39a220.82 220.82 0 0 1-33.099 10.851zm156.915-146.926a12.578 12.578 0 0 1-2.898-2.076l-12.154-11.632c-8.198-7.847-18.976-11.977-30.306-11.608-11.344.363-21.822 5.163-29.503 13.518-9.99 10.869-23.506 18.232-38.056 20.735l-43.211 7.435a45.724 45.724 0 0 1-7.766.665 45.445 45.445 0 0 1-29.412-10.802 45.46 45.46 0 0 1-16.115-35.005l.201-38.902c.048-9.102-2.939-18.121-8.409-25.395l-22.437-29.838a12.636 12.636 0 0 1-.641-14.25l35.448-57.201a12.635 12.635 0 0 1 10.251-5.971l84.007-3.26 32.661-35.694c.193-.211.406-.397.61-.593 40.713 30.305 69.338 73.444 81.443 123.385 9.471 39.083 8.046 79.093-3.713 116.489z"/></symbol><symbol id="flight" viewBox="0 0 426.667 426.667"><path d="M416 298.667V256L245.333 149.333V32c0-17.707-14.293-32-32-32s-32 14.293-32 32v117.333L10.667 256v42.667l170.667-53.333v117.333l-42.667 32v32l74.667-21.333L288 426.667v-32l-42.667-32V245.333L416 298.667z"/></symbol><symbol id="place" viewBox="0 0 512 512"><path d="M256 0C147.925 0 60 87.925 60 196c0 34.594 9.14 68.605 26.431 98.355a196.851 196.851 0 0 0 13.395 20.09L247.484 512h17.031l147.659-197.554a197.293 197.293 0 0 0 13.395-20.09C442.86 264.605 452 230.594 452 196 452 87.925 364.075 0 256 0zm0 261c-35.841 0-65-29.159-65-65s29.159-65 65-65 65 29.159 65 65-29.159 65-65 65z"/></symbol><symbol id="user" viewBox="0 0 438.529 438.529"><path d="M219.265 219.267c30.271 0 56.108-10.71 77.518-32.121 21.412-21.411 32.12-47.248 32.12-77.515 0-30.262-10.708-56.1-32.12-77.516C275.366 10.705 249.528 0 219.265 0S163.16 10.705 141.75 32.115c-21.414 21.416-32.121 47.253-32.121 77.516 0 30.267 10.707 56.104 32.121 77.515 21.416 21.411 47.251 32.121 77.515 32.121z"/><path d="M419.258 335.036c-.668-9.609-2.002-19.985-3.997-31.121-1.999-11.136-4.524-21.457-7.57-30.978-3.046-9.514-7.139-18.794-12.278-27.836-5.137-9.041-11.037-16.748-17.703-23.127-6.666-6.377-14.801-11.465-24.406-15.271-9.617-3.805-20.229-5.711-31.84-5.711-1.711 0-5.709 2.046-11.991 6.139a2716.072 2716.072 0 0 1-21.266 13.708c-7.898 5.037-18.182 9.609-30.834 13.695-12.658 4.093-25.361 6.14-38.118 6.14-12.752 0-25.456-2.047-38.112-6.14-12.655-4.086-22.936-8.658-30.835-13.695a2784.143 2784.143 0 0 1-21.267-13.708c-6.283-4.093-10.278-6.139-11.991-6.139-11.61 0-22.222 1.906-31.833 5.711-9.613 3.806-17.749 8.898-24.412 15.271-6.661 6.379-12.562 14.086-17.699 23.127-5.137 9.042-9.229 18.326-12.275 27.836-3.045 9.521-5.568 19.842-7.566 30.978-2 11.136-3.332 21.505-3.999 31.121a427.742 427.742 0 0 0-.998 29.554c0 22.836 6.949 40.875 20.842 54.104 13.896 13.224 32.36 19.835 55.39 19.835h249.533c23.028 0 41.49-6.611 55.388-19.835 13.901-13.229 20.845-31.265 20.845-54.104-.002-10.088-.334-19.938-1.008-29.554z"/></symbol></svg>